<?xml version="1.0" encoding="UTF-8" standalone="no"?>
<svg
   version="1.2"
   viewBox="0 0 377 598"
   width="377"
   height="598"
   id="svg331"
   sodipodi:docname="Query_SVG.svg"
   inkscape:version="1.2.2 (732a01da63, 2022-12-09)"
   xmlns:inkscape="http://www.inkscape.org/namespaces/inkscape"
   xmlns:sodipodi="http://sodipodi.sourceforge.net/DTD/sodipodi-0.dtd"
   xmlns="http://www.w3.org/2000/svg"
   xmlns:svg="http://www.w3.org/2000/svg">
  <defs
     id="defs335" />
  <sodipodi:namedview
     id="namedview333"
     pagecolor="#ffffff"
     bordercolor="#000000"
     borderopacity="0.25"
     inkscape:showpageshadow="2"
     inkscape:pageopacity="0.0"
     inkscape:pagecheckerboard="0"
     inkscape:deskcolor="#d1d1d1"
     showgrid="false"
     inkscape:zoom="0.99435377"
     inkscape:cx="466.63473"
     inkscape:cy="322.31989"
     inkscape:window-width="1920"
     inkscape:window-height="991"
     inkscape:window-x="-9"
     inkscape:window-y="-9"
     inkscape:window-maximized="1"
     inkscape:current-layer="svg331" />
  <style
     id="style323">.a{fill:#fff}</style>
  <path
     class="a"
     d="M 0,299 V 598 H 377 V 0 H 0 Z"
     id="path325" />
  <path
     fill-rule="evenodd"
     d="m 175.4,45.3 c 0.5,0.1 1.1,0.8 1.3,1.5 0.1,0.6 -0.9,1.8 -2.5,2.6 -1.5,0.8 -5,2.2 -7.7,3.1 -2.8,0.9 -9.1,3.7 -14,6.1 -4.9,2.4 -12.9,7 -17.7,10.2 -5.9,3.8 -11.9,9.1 -18.5,16.2 -5.4,5.8 -11.5,12.8 -13.5,15.5 -2,2.8 -5.1,8.2 -6.8,12 -2.6,5.7 -3.5,9.6 -4.8,20.5 -1.4,12.7 -1.4,13.9 0.3,19.5 0.9,3.3 3.5,9.6 5.6,14 2.2,4.4 6,10.6 8.4,13.8 3.7,4.7 5.9,6.4 12.7,9.6 6.4,3.1 10.8,4.4 19.3,5.7 6.9,1 14.3,1.5 20,1.2 5.7,-0.3 9.1,-0.9 9.2,-1.6 0.2,-0.7 1.9,-1.2 3.8,-1.2 2,0 7.3,-1.8 12.6,-4.2 5.7,-2.7 10,-5.4 11.4,-7.3 1.2,-1.7 3.3,-4.1 4.5,-5.5 1.3,-1.4 3.7,-4.7 5.5,-7.5 1.8,-2.7 4.6,-8.4 6.3,-12.5 1.6,-4.1 3.5,-10.7 4.2,-14.5 0.6,-3.9 0.9,-9 0.5,-11.5 -0.4,-2.5 -1.2,-5.2 -1.9,-6 -0.6,-0.8 -2.3,-3.9 -3.6,-6.7 -1.4,-2.9 -2.8,-5.3 -3.3,-5.3 -0.4,0 -0.7,-0.6 -0.7,-1.2 0,-0.7 -1.4,-3.7 -3.2,-6.5 -2,-3.2 -5.3,-6.6 -8.6,-8.8 -3.9,-2.6 -6.8,-3.7 -11.5,-4.3 -4.5,-0.5 -6.2,-1.1 -6.2,-2.2 0,-1.2 1.3,-1.4 6.2,-1.2 3.5,0.1 7.8,0.9 9.5,1.8 1.8,0.9 3.5,2 3.8,2.3 0.3,0.4 1.7,1.4 3.2,2.4 1.6,0.9 4.9,5 7.5,9 2.7,3.9 5,7.7 5.3,8.2 0.3,0.6 1.3,2.1 2.2,3.5 1,1.4 2.6,5.2 3.8,8.5 1.1,3.3 2,7.3 2,9 0,1.7 -0.5,5.7 -1.1,9 -0.6,3.3 -2.3,9.4 -3.7,13.5 -1.4,4.1 -3.6,9.5 -5,12 -1.4,2.5 -5.6,8.1 -9.2,12.5 -5.3,6.3 -8.2,8.8 -13.6,11.7 -3.8,2 -9.7,4.6 -13.2,5.7 -3.4,1.2 -8,2.1 -14.2,2.1 l 0.6,9.3 c 0.4,5.4 1.2,9.8 2,10.7 0.7,0.8 1.4,2.3 1.4,3.3 0,0.9 1.5,2.6 3.2,3.7 1.8,1.1 4,2.4 4.8,2.9 0.8,0.6 3.1,1.6 5,2.4 1.9,0.8 5.5,2.2 8,3.2 2.5,1 7,2.9 10,4.3 3,1.3 9.8,4.2 15,6.4 5.2,2.1 12.4,5.1 16,6.5 3.6,1.3 6.9,2.3 7.5,2 0.6,-0.2 4.5,-7.4 8.8,-15.8 4.2,-8.5 9.9,-19.1 12.5,-23.5 2.6,-4.5 5.2,-8.8 5.8,-9.5 0.6,-0.8 2.8,-2.2 8.4,-4.9 l -0.5,-6.7 c -0.4,-3.8 -0.1,-9.3 0.4,-12.3 0.8,-4.1 0.8,-6.4 -0.2,-8.9 -0.6,-1.9 -3.4,-5.5 -6,-8 -2.7,-2.5 -5.7,-5.9 -6.7,-7.6 -1,-1.6 -2.5,-5 -3.3,-7.5 -0.8,-2.5 -2.3,-9 -3.2,-14.5 -1.3,-7.4 -1.5,-12.3 -1,-19 0.4,-4.9 1.3,-9.4 1.9,-10 0.7,-0.5 2,-3.5 2.9,-6.5 0.9,-3 2.6,-7.1 3.9,-8.9 1.3,-1.9 4.2,-5 6.5,-6.8 4,-3.1 4.8,-3.3 11.8,-3.3 5.5,0 8.6,0.5 11.5,2 2.2,1.1 4.8,2 5.7,2 1,0 4,1.4 6.7,3.2 2.7,1.8 6.4,5.6 8.3,8.3 1.8,2.8 4.5,8.8 6,13.5 2.3,7.3 2.7,10.3 2.7,21.5 0.1,11.3 -0.2,13.8 -2.2,19 -1.3,3.3 -3.5,7.7 -5,9.9 -1.5,2.1 -5,5.5 -7.7,7.6 -2.8,2.1 -6.9,4.4 -13.5,6.5 v 6.3 c 0,3.4 -0.4,6.4 -1,6.7 -0.6,0.3 -1,3.1 -1,12 l 3.3,-0.3 q 3.2,-0.4 6.7,2 c 2.1,1.4 3.6,3.3 3.8,4.8 0.2,1.6 -0.5,3.3 -2,4.8 -1.3,1.2 -3.9,2.6 -5.8,3 -3.5,0.8 -3.5,0.8 -4.8,8.5 -0.6,4.2 -1.6,8.7 -2.1,10 -0.5,1.3 -2.1,2.5 -4,3 -1.7,0.4 -5,0.4 -11.4,-0.8 l 0.7,-8.5 c 0.3,-4.7 0.3,-9 -0.2,-9.5 -0.4,-0.6 -2.7,-1.7 -5.2,-2.4 -2.5,-0.7 -4.6,-0.9 -4.8,-0.5 -0.1,0.5 -1.3,2.7 -2.7,4.9 -1.3,2.2 -3.9,6.9 -5.8,10.5 -1.9,3.6 -4.5,9 -5.7,12 -1.3,3 -2.9,6.2 -3.6,7 -0.6,0.8 -2.4,3.9 -3.8,6.8 -1.4,2.8 -3.2,5.2 -3.9,5.2 -0.6,0 -3,-0.6 -5.2,-1.4 -2.2,-0.7 -6.5,-2.5 -9.5,-3.9 -3,-1.4 -9.6,-4.2 -14.5,-6.2 -4.9,-2 -11.3,-4.7 -14,-6 -2.8,-1.2 -7,-2.9 -9.5,-3.8 -2.5,-0.9 -6.2,-2.3 -8.3,-3.1 -2,-0.9 -3.9,-2 -4.2,-2.6 -0.3,-0.6 -1.9,-1.7 -6.5,-4 l 0.1,12.3 c 0,6.7 0.7,19.8 1.4,29.2 0.8,9.4 1.7,37.9 2,63.5 0.3,25.6 0.8,52.8 1.2,74.5 l 7.5,15 c 4.2,8.3 8.9,19.1 10.6,24 1.7,4.9 4.3,13.5 5.7,19 1.5,5.5 3.8,14.3 5.2,19.5 1.3,5.2 2.8,12 3.4,15 0.5,3 1.4,9.6 1.9,14.5 0.6,5 2.2,13.5 3.6,19 1.4,5.5 3,13.4 3.5,17.5 0.4,4.1 1.1,7.7 1.5,8 0.3,0.3 3.6,0.5 7.2,0.6 5.1,0 7.6,0.6 10.7,2.4 2.2,1.3 4.8,3 5.8,3.9 1,0.9 1.8,2.3 1.8,3.1 0,0.8 -1.1,2.5 -2.3,3.6 -1.3,1.2 -3.8,2.9 -5.6,3.8 -1.7,0.9 -4.9,1.6 -7,1.6 -2,0 -5.5,-0.9 -7.7,-1.9 -2.2,-1 -5,-2.8 -6.3,-4 -2,-1.9 -2.2,-2.7 -1.6,-10.3 0.3,-5.6 0,-10.6 -1,-15.3 -0.8,-3.9 -2.2,-9.2 -3.1,-12 -0.8,-2.7 -2,-9.3 -2.5,-14.5 -0.6,-5.2 -1.5,-12 -2.1,-15 -0.5,-3 -2.4,-11.1 -4.1,-18 -1.6,-6.9 -4.4,-17.2 -6,-23 -1.6,-5.8 -3.3,-11.9 -3.8,-13.5 -0.4,-1.6 -1.7,-5.2 -2.8,-8 -1.1,-2.7 -4.2,-9.5 -6.9,-15 -2.7,-5.5 -5.3,-10.7 -5.7,-11.5 -0.6,-1.1 -2,0.7 -5.5,7 -2.5,4.7 -6,10.5 -7.7,13 -1.7,2.5 -5.1,8.8 -7.6,14 -2.5,5.2 -8,16.5 -12.2,25 -4.1,8.5 -10.4,20.9 -13.9,27.5 -3.4,6.6 -6.9,13.6 -7.6,15.5 -0.7,1.9 -2.9,6.6 -4.8,10.5 -1.8,3.9 -6,12 -9.3,18 -3.2,6 -5.9,11.2 -6,11.5 0,0.3 3.2,1 7.2,1.7 5.8,1 8,1.9 10.5,4.3 2.5,2.3 3.3,3.8 3.3,6.5 0,2.2 -0.8,4.3 -2,5.5 -1.5,1.5 -3.3,2 -7.2,2 -3.3,-0.1 -8,-1.1 -12.3,-2.8 -6.3,-2.5 -7,-3 -7.3,-5.7 -0.2,-1.7 0.2,-3.5 0.8,-4 0.6,-0.5 1,-1.9 1,-3 0,-1.1 2.6,-6.7 5.7,-12.5 3.1,-5.8 8,-15.2 10.9,-21 2.8,-5.8 6.2,-13 7.5,-16 1.4,-3 7.1,-14.7 12.9,-26 5.7,-11.3 13.1,-26.1 16.3,-33 3.2,-6.9 7.4,-14.7 9.1,-17.5 1.8,-2.7 4.6,-7.2 6.3,-10 1.7,-2.7 4.3,-7.2 5.8,-10 2.6,-4.8 2.7,-5.4 2.2,-17.5 -0.2,-6.9 -0.7,-35 -1.1,-62.5 -0.4,-27.5 -1.1,-54.9 -1.7,-61 -0.6,-6.1 -1.4,-18.3 -2.4,-43.6 l -15.2,15.3 c -8.4,8.4 -16.5,16.9 -18,18.9 -1.5,2 -5.3,6.4 -8.3,10 -3,3.5 -7.2,8.2 -9.3,10.4 -2.1,2.2 -3.8,4.2 -3.7,4.5 0,0.3 1.1,1.9 2.4,3.5 1.3,1.6 4.2,6.8 6.5,11.5 2.2,4.7 4.1,8.9 4.1,9.5 0,0.6 2,7.8 4.6,16 2.5,8.3 5.7,18.8 7,23.5 1.2,4.7 3.3,11.5 6.9,21.8 l 5,-0.5 c 4.5,-0.4 5.4,-0.1 8.7,2.6 3.2,2.6 3.8,3.7 3.5,6.4 -0.2,2.7 -0.9,3.5 -4.2,5.1 -2.7,1.3 -6.9,2.1 -13,2.4 -7.7,0.4 -9.3,0.2 -11.3,-1.4 -1.3,-1.1 -2.6,-3.1 -2.8,-4.6 -0.4,-2.5 0.2,-3.1 10.6,-8.8 l -3,-8.7 c -1.6,-4.9 -4.5,-14.2 -6.5,-20.8 -1.9,-6.6 -4.9,-16.5 -6.6,-22 -1.7,-5.5 -3.8,-12 -4.6,-14.5 -0.9,-2.5 -2.9,-6.7 -4.5,-9.5 -1.6,-2.7 -4,-6.6 -5.4,-8.5 -1.3,-1.9 -2.4,-4.3 -2.4,-5.2 0,-1 1.2,-2.4 2.7,-3.2 1.6,-0.7 6.8,-6 11.8,-11.7 4.9,-5.6 12.3,-13.9 16.4,-18.3 4.1,-4.5 10.7,-11.3 14.5,-15.2 3.9,-3.8 7.7,-8.1 8.3,-9.5 0.7,-1.3 2.3,-3 3.5,-3.7 2.3,-1.3 2.3,-1.4 1.3,-13.5 -0.6,-6.7 -1.4,-12.8 -1.8,-13.4 -0.4,-0.9 -3.1,-1.3 -7.5,-1.3 -3.7,0 -11,-0.7 -16.2,-1.6 -5.2,-0.9 -12.1,-2.8 -15.4,-4.2 -3.9,-1.8 -7.8,-4.7 -11.5,-8.7 -3.8,-4 -7.5,-9.5 -11,-16.5 -3,-5.8 -5.9,-13.2 -6.6,-16.5 -0.9,-4.4 -1.1,-9 -0.4,-17 0.5,-6.1 1.1,-12.6 1.5,-14.5 0.3,-1.9 2.3,-7.2 4.5,-11.7 2.3,-5 6.4,-11.2 10.1,-15.5 3.5,-4 9.5,-10.7 13.4,-14.8 4,-4.1 9.8,-9.3 13,-11.4 3.3,-2.1 7,-4.7 8.4,-5.6 1.4,-0.9 5.9,-3.4 10,-5.6 4.1,-2.1 11.8,-5.5 17,-7.5 5.2,-2.1 9.9,-3.6 10.4,-3.6 z m 13.1,24.1 c 1.1,0 2,0.8 2,1.6 0,0.8 -1.4,1.7 -3.5,2.1 -1.9,0.4 -8.7,1.7 -15,2.9 -6.3,1.2 -13.5,3.1 -16,4.2 -2.5,1.1 -7.4,3 -11,4.2 -3.6,1.3 -9.1,3.9 -12.3,5.9 -3.8,2.5 -5.7,4.4 -5.7,5.7 0,1.2 -0.7,2 -1.8,2 -0.9,0.1 -2.4,-0.7 -3.2,-1.6 -1.4,-1.5 -1.2,-1.9 1.5,-4.1 1.6,-1.4 5.2,-3.9 8,-5.7 2.7,-1.8 7,-4 9.5,-4.9 2.5,-0.9 7.2,-2.7 10.5,-4.1 3.3,-1.4 8.7,-3 12,-3.6 3.3,-0.6 7.1,-1.5 8.5,-2.1 1.4,-0.5 5.2,-1.3 8.5,-1.8 3.3,-0.5 6.9,-0.8 8,-0.7 z m -41.6,49.8 c 0.8,0.2 2.2,1.5 3.1,3 1.1,2.1 1.3,3.3 0.5,5.5 -0.8,2.1 -1.8,2.9 -4,3.1 -1.9,0.2 -3.7,-0.4 -4.8,-1.5 -1,-1 -1.8,-2.3 -1.8,-3 -0.1,-0.6 1.1,-2.6 2.6,-4.3 1.5,-1.7 3.5,-3 4.4,-2.8 z m 38.8,2.8 c 2,0 3.5,0.6 3.8,1.5 0.3,0.8 0.5,2.2 0.5,3 0,0.8 -1.1,2.9 -2.5,4.5 -1.6,1.9 -3.4,3 -5,3 -1.5,0 -3.1,-0.9 -4,-2.2 -0.8,-1.3 -1.6,-3.1 -1.6,-4 -0.1,-0.9 1.1,-2.6 2.7,-3.7 1.5,-1.2 4.2,-2.1 6.1,-2.1 z m -2.3,35.3 c 0.6,0.2 1.2,1.1 1.3,2 0.2,0.9 -1.4,3.5 -3.5,5.8 -2,2.2 -6.2,5.2 -9.2,6.6 -3,1.4 -8,2.8 -11,3.1 -3,0.2 -8,0 -11,-0.6 -4,-0.8 -6.9,-2.3 -10.7,-5.4 -2.9,-2.4 -5.3,-5.1 -5.3,-6 0,-1 0.4,-2 1,-2.3 0.6,-0.3 2.2,0.9 3.7,2.6 1.6,1.7 4.1,3.9 5.8,4.9 1.7,1 5.7,2.3 9,3 4.9,0.9 6.9,0.9 11,-0.4 2.7,-0.8 7.2,-3 10,-4.8 2.7,-1.8 5.6,-4.6 6.4,-6.1 0.7,-1.5 1.9,-2.6 2.5,-2.4 z"
     id="path327" />
  <path
     class="a"
     d="m 268.4,86.1 c -2.3,1.1 -5.3,3.7 -6.7,5.7 -1.4,2 -3.3,5.3 -4.1,7.2 -0.8,1.9 -2.2,6.9 -3.1,11 -0.9,4.1 -1.4,8.1 -1.1,8.8 0.3,0.6 0.1,2 -0.5,3 -0.9,1.3 -0.8,4.1 0.5,12 0.9,5.6 2.3,12.3 3.2,15 0.9,2.6 2.5,6.2 3.5,8 1,1.7 2.1,3.1 2.4,3 0.2,-0.2 -0.2,-6.6 -1,-14.3 -0.8,-7.7 -1.5,-16.7 -1.5,-20 0,-3.3 0.7,-8.9 1.6,-12.5 0.9,-3.6 3,-9.4 4.8,-13 1.7,-3.6 5,-8.4 7.3,-10.7 2.4,-2.4 4,-4.5 3.6,-4.8 -0.5,-0.3 -1.7,-0.5 -2.8,-0.5 -1.1,0 -3.9,0.9 -6.1,2.1 z m 14.1,3 c -2.2,0.6 -5,2 -6.3,3.2 -1.3,1.2 -3.6,4.5 -5.2,7.2 -1.5,2.8 -3.8,8.2 -5,12 -1.6,5.1 -2.1,9.6 -2.2,16.5 0,5.2 0.6,13.3 1.2,18 0.7,4.7 2,10.9 3.1,13.8 1,2.8 2.9,5.9 4.2,6.7 1.2,0.8 4.2,1.5 6.7,1.5 3.3,0 5.8,-0.8 9.3,-3 2.8,-1.8 5.5,-4.5 6.6,-6.7 1,-2.1 2.7,-6.5 3.7,-9.8 1.4,-4.6 1.9,-9.3 1.9,-20.5 0,-14 -0.1,-14.8 -3.5,-24.4 -2.1,-6.1 -4.6,-11.1 -6.2,-12.8 -1.6,-1.5 -3.1,-2.8 -3.5,-2.7 -0.5,0.1 -2.6,0.5 -4.8,1 z m 15.5,4.4 c 0,0.3 1.4,4.7 3.2,9.8 2.9,8.6 3.2,10.1 3.2,22.7 0,7.4 -0.6,16.4 -1.3,20 -0.7,3.6 -2.4,9 -3.7,12 -1.4,3 -3.5,6.5 -4.7,7.7 -1.7,1.8 -1.8,2.2 -0.6,2 0.9,-0.1 3.7,-1.7 6.3,-3.4 3.4,-2.4 5.4,-4.9 7.6,-9.5 1.6,-3.5 3.5,-9 4.1,-12.3 0.7,-3.4 0.9,-9.8 0.5,-15 -0.3,-4.9 -1.4,-11.9 -2.4,-15.5 -1.1,-3.6 -2.6,-7.8 -3.4,-9.5 -0.9,-1.7 -2.7,-4.5 -4.2,-6.2 -1.4,-1.8 -3,-3.3 -3.6,-3.3 -0.5,0 -1,0.2 -1,0.5 z m -24.4,81.3 c -0.2,0.4 -0.8,6.2 -1.3,13 L 271.5,200 H 282 c 0.7,-14.3 1,-19.2 1.1,-20 0.1,-0.8 0,-2.2 -0.2,-3 -0.2,-0.8 -1.3,-1.8 -2.4,-2.2 -1.1,-0.3 -3,-0.6 -4.2,-0.7 -1.2,-0.1 -2.4,0.2 -2.7,0.7 z m -5.5,30.9 c -2.8,0.9 -4.4,2 -4.3,2.9 0.1,0.8 0.9,1.6 1.7,1.9 0.8,0.3 5.9,0.5 11.3,0.6 5.3,0 11.6,-0.4 14,-1 2.3,-0.6 4.5,-1.8 5,-2.7 0.4,-1 0.1,-1.9 -0.8,-2.5 -0.8,-0.5 -6.2,-0.8 -12,-0.8 -6.5,0 -12.2,0.6 -14.9,1.6 z M 274,223 c 0,7.9 0,8 2.8,8.6 1.5,0.3 3.1,0.1 3.7,-0.6 0.6,-0.6 1.6,-3 2.2,-5.3 0.7,-2.3 1.3,-5.7 1.3,-7.4 0,-3.3 0,-3.3 -5,-3.3 h -5 z M 133.5,383.6 c -2.7,1.3 -5.7,3.1 -6.5,3.9 -0.8,0.8 -1.3,1.7 -1,2 0.3,0.3 3.2,0.6 6.5,0.6 3.3,0.1 8.3,-0.5 11,-1.3 3.1,-0.9 5.1,-2.1 5.3,-3.2 0.1,-1 -1.1,-2.1 -3.5,-3.1 -2.1,-0.9 -4.5,-1.5 -5.3,-1.4 -0.8,0 -3.7,1.1 -6.5,2.5 z m -43,183.4 -3,2.8 c 7.8,3.3 11.8,4.7 14,5.2 2.2,0.4 4.9,0.5 6,0.1 1.1,-0.5 2.3,-1.5 2.8,-2.4 q 0.7,-1.7 -1.5,-4.1 c -1.3,-1.3 -4.4,-2.9 -7,-3.5 -2.7,-0.6 -5.6,-1.1 -6.5,-1 -1,0 -3.1,1.3 -4.8,2.9 z m 120.3,-1.8 c 0.1,0.4 0.7,0.8 1.2,0.8 0.6,0 1,0.7 1,1.5 0,0.8 -0.4,1.5 -1,1.5 -0.5,0 -1,0.5 -1,1 0,0.5 1.5,1.9 3.3,3 1.7,1.1 4.9,2 7,2 2.1,0 5.1,-0.9 7.2,-2.2 1.9,-1.3 3.5,-2.5 3.5,-2.8 0,-0.3 -1.9,-1.6 -4.3,-2.9 -3,-1.7 -6,-2.4 -10.6,-2.6 -3.5,-0.1 -6.3,0.2 -6.3,0.7 z"
     id="path329" />
</svg>
