<?xml version="1.0" encoding="UTF-8" standalone="no"?>
<svg
   version="1.2"
   viewBox="0 0 271.82156 586"
   width="271.82156"
   height="586"
   id="svg303"
   sodipodi:docname="Questions_SVG.svg"
   inkscape:version="1.2.2 (732a01da63, 2022-12-09)"
   inkscape:export-filename="Questions_SVG.png"
   inkscape:export-xdpi="96"
   inkscape:export-ydpi="96"
   xmlns:inkscape="http://www.inkscape.org/namespaces/inkscape"
   xmlns:sodipodi="http://sodipodi.sourceforge.net/DTD/sodipodi-0.dtd"
   xmlns="http://www.w3.org/2000/svg"
   xmlns:svg="http://www.w3.org/2000/svg">
  <defs
     id="defs307" />
  <sodipodi:namedview
     id="namedview305"
     pagecolor="#ffffff"
     bordercolor="#000000"
     borderopacity="0.25"
     inkscape:showpageshadow="2"
     inkscape:pageopacity="0.0"
     inkscape:pagecheckerboard="0"
     inkscape:deskcolor="#d1d1d1"
     showgrid="false"
     inkscape:zoom="1.1180005"
     inkscape:cx="10.286221"
     inkscape:cy="274.15014"
     inkscape:window-width="1920"
     inkscape:window-height="991"
     inkscape:window-x="-9"
     inkscape:window-y="-9"
     inkscape:window-maximized="1"
     inkscape:current-layer="svg303" />
  <style
     id="style295">.a{fill:#fff}</style>
  <path
     fill-rule="evenodd"
     d="m 266.7,0 c 1.7,0 2.2,0.6 2.2,2.8 0,1.5 -0.3,3 -0.7,3.4 -0.4,0.5 -1.4,0.3 -2.1,-0.2 -0.8,-0.7 -2.1,-0.6 -4,0.4 -1.5,0.7 -4.2,2.5 -6,4 -1.7,1.4 -3.2,2.9 -3.2,3.4 0,0.4 3.5,1.2 7.7,1.9 5.3,0.8 8.5,1.9 9.8,3.2 1.7,1.8 1.8,2.4 0.7,4.6 -0.8,1.6 -3.6,3.6 -8,5.6 -3.7,1.7 -7.8,2.9 -9.2,2.7 -1.4,-0.2 -2.5,-1 -2.5,-1.8 0,-0.8 1.3,-1.7 3,-2.1 1.6,-0.3 5.1,-1.6 7.7,-2.8 2.7,-1.1 4.8,-2.6 4.8,-3.1 0,-0.5 -1.7,-1.4 -3.8,-2 -2,-0.5 -5.1,-1 -6.7,-1 -1.6,0.1 -4.1,-0.8 -5.5,-1.9 -2.2,-1.7 -2.4,-2.3 -1.5,-4.8 0.7,-1.8 3.5,-4.5 8,-7.5 3.9,-2.6 8,-4.8 9.2,-4.8 z M 239,2 c 0.6,0 1.2,0.5 1.5,1 0.3,0.5 -0.9,5.6 -2.7,11.3 -1.7,5.6 -3.6,11 -4.2,12 -0.6,0.9 -1.9,1.7 -2.9,1.7 -0.9,0 -3.1,-1 -4.8,-2.3 -1.6,-1.2 -5.1,-4.8 -7.7,-8 -2.6,-3.2 -4.9,-5.8 -5.2,-5.7 -0.3,0 -1,3.2 -1.5,7.2 -0.8,6.1 -1.3,7.4 -3,7.7 -1.9,0.3 -2,0.1 -1.1,-7 0.4,-4.1 1.2,-8.6 1.7,-10.2 C 209.7,8 210.7,7 212,7 c 1.3,0 4.3,2.7 8.2,7.2 3.3,4 6.9,7.9 8,8.5 1,0.7 2,1.2 2.3,1 0.2,-0.1 1.3,-3.4 2.4,-7.2 1.1,-3.8 2.7,-8.7 3.6,-10.8 0.8,-2 2,-3.7 2.5,-3.7 z M 19.5,5.1 c 2.8,0 6.8,0.7 9,1.8 2.2,1 5.5,3.5 7.4,5.7 1.9,2.1 4,5.4 4.8,7.1 0.7,1.8 1.3,4.9 1.3,6.8 0,2.6 -0.8,4.3 -3.3,6.8 -1.8,1.7 -4.1,3.7 -5.1,4.2 -1.7,0.9 -1.6,1.2 1,3.8 2.6,2.5 2.7,2.9 1.4,4.3 -1.3,1.4 -1.8,1.1 -4.8,-2 -3.1,-3.5 -3.3,-3.6 -7.5,-2.6 -2.3,0.5 -6.3,1 -9,1 C 12.1,42 8.4,41.3 6.5,40.5 4.5,39.7 2.3,37.7 1.5,36 0.6,34.2 0,30.2 0,26.2 0,20.5 0.4,18.8 2.8,15 4.4,12.5 6.6,9.7 7.6,8.8 c 1,-0.9 3,-2.1 4.4,-2.7 1.4,-0.5 4.7,-1 7.5,-1 z M 121,5.3 q 3.5,0.2 3.5,1.7 c 0,0.9 -1,1.5 -2.5,1.6 -1.4,0 -3.6,0.7 -5,1.4 -1.4,0.7 -3.3,2 -4.3,2.9 -1,0.9 -1.8,1.8 -1.8,2.1 0.1,0.3 1.9,0.8 4.1,1.3 2.2,0.4 4.9,1.6 6,2.7 1.4,1.4 2,3.3 2,6.5 0,3.1 -0.6,5 -1.9,6.3 -1,0.9 -4.3,2.5 -7.2,3.4 -3,1 -6.6,1.8 -8.2,1.8 -1.6,0 -3.7,-1 -5.2,-2.5 -2.2,-2.2 -2.9,-2.4 -5.8,-1.5 -1.7,0.6 -5,1 -7.2,1.1 -2.6,0 -4.4,0.6 -5.2,1.7 -0.9,1.3 -1.6,1.5 -3,0.6 -1.5,-1 -1.8,-2.6 -1.9,-11.5 -0.1,-5.7 -0.4,-11 -0.8,-11.6 -0.3,-0.7 0,-2 0.6,-2.8 0.7,-0.9 3.5,-2.1 6.3,-2.7 q 5,-1.1 8.5,-0.2 c 2,0.6 3.5,1.6 3.5,2.4 0,1.1 -1,1.4 -4,1.2 -2.2,-0.2 -5.9,0.2 -8.3,1 -2.8,0.9 -3.9,1.6 -3.2,2.3 0.6,0.5 1,2.2 1,3.8 0,1.5 0.4,2.7 1,2.7 0.5,0 3.3,-0.8 6,-1.7 4.2,-1.5 5.3,-1.6 6.3,-0.5 0.9,1.1 0.9,1.6 -0.4,2.5 -0.8,0.7 -4.1,1.8 -7.2,2.5 -5.2,1.1 -5.7,1.4 -5.7,4 0,2.5 0.3,2.7 4.2,2.6 2.4,0 5.9,-0.4 7.8,-0.8 1.9,-0.5 4.1,-1.2 4.7,-1.7 Q 99,27 99.9,28.8 c 0.7,1.4 1.2,1.5 2.5,0.5 0.9,-0.7 2.3,-1.1 3.1,-0.8 0.9,0.3 1.3,1.3 1,2.5 -0.3,1.1 -0.2,2 0.2,2 0.5,0 3.2,-0.7 6,-1.5 q 5.3,-1.5 6.4,-3.7 c 0.8,-1.7 0.8,-2.9 0,-4.5 Q 118,21 114.2,20.4 c -2,-0.3 -4.7,-1.2 -6,-2 -1.2,-0.8 -2.2,-2 -2.2,-2.6 0,-0.7 1.7,-2.9 3.7,-4.9 2.1,-2 4.7,-4.1 5.8,-4.8 1.1,-0.6 3.6,-1 5.5,-0.8 z m 29.5,1.1 c 2.7,0 4.9,0.6 4.8,1.1 -0.1,0.5 -2.2,1.5 -9.1,3 l -0.8,8 c -0.3,4.4 -0.4,8.6 0,9.3 0.3,0.6 -0.1,1.7 -0.9,2.2 -0.8,0.5 -2,0.7 -2.7,0.2 C 141,29.7 140.9,26.9 142,11 h -5 c -3.8,0 -5,-0.4 -5,-1.5 0,-1.1 1.8,-1.7 6.7,-2.4 3.8,-0.5 9,-0.8 11.8,-0.7 z M 63.7,9 c 0.5,0 1.8,1 3,2.2 1.1,1.3 2.8,4.1 3.7,6.3 0.9,2.2 1.6,5.6 1.6,7.5 -0.1,2.7 -0.9,4.3 -3.5,6.7 -2.1,2 -5,3.5 -7.3,3.9 -2,0.3 -4.6,0.2 -5.7,-0.4 -1.1,-0.5 -3.2,-2.3 -4.8,-4.1 -2.3,-2.6 -2.7,-4 -2.7,-9.1 0,-4.1 0.4,-6 1.2,-6 0.8,0 1.6,2 2,5.2 0.3,2.9 1.5,6.4 2.6,7.8 1.6,2 2.8,2.5 5.8,2.3 2.6,-0.1 4.7,-1 6.2,-2.5 1.2,-1.3 2.2,-3.3 2.2,-4.6 0,-1.2 -0.7,-3.9 -1.6,-6 -0.9,-2 -2.3,-4.2 -3.1,-4.7 -1,-0.6 -1.4,-1.7 -1,-2.8 C 62.7,9.8 63.3,9 63.7,9 Z M 181,9.5 c 2.5,0.3 6,1.6 7.9,2.8 1.8,1.2 4.2,3.5 5.2,5.2 1,1.7 1.9,4.2 1.9,5.7 0,1.7 -1,3.8 -2.5,5.3 -1.8,1.9 -3.5,2.5 -6.5,2.5 -2.2,0 -5.4,-0.7 -7,-1.5 -1.6,-0.8 -3.7,-2.8 -4.5,-4.5 -0.8,-1.7 -1.6,-5.4 -1.7,-8.3 -0.1,-3.6 0.3,-5.7 1.2,-6.6 1,-0.8 3,-1.1 6,-0.6 z M 158.7,13 c 0.7,0 1.5,1 1.8,2.2 0.3,1.3 0.5,4 0.5,6 0,2.8 0.5,4.1 2,4.8 1.1,0.5 2,1.7 2,2.5 0,0.9 -0.9,1.5 -2.5,1.5 -1.5,0 -3,-0.9 -3.9,-2.3 -0.7,-1.2 -1.7,-4.7 -2.1,-7.9 -0.5,-3.1 -0.4,-5.9 0,-6.2 0.5,-0.3 1.4,-0.6 2.2,-0.6 z m 66.5,28.2 c 2.2,-0.1 4.1,0.3 4.4,1 0.3,0.7 0.2,1.6 -0.2,2 -0.5,0.4 -8.5,1.4 -17.9,2.3 -9.4,0.9 -27.6,2.5 -40.5,3.6 -12.9,1.1 -32.1,2.6 -42.5,3.4 C 118,54.2 99.6,55.4 87.5,56 75.4,56.7 62.6,57 59,56.8 54.2,56.6 52.4,56.1 52.2,55 52,53.7 54.1,53.5 65.7,53.3 c 7.6,0 19.2,-0.6 25.8,-1.2 6.6,-0.7 26.4,-2.1 44,-3.2 17.6,-1.1 39,-2.7 47.5,-3.5 8.5,-0.9 20.7,-2.1 27,-2.8 6.3,-0.7 13.2,-1.4 15.2,-1.4 z m -31.2,18 c 1.7,0.2 2.5,0.9 2.5,2.3 0,1.6 -0.8,2 -4,2.3 -2.2,0.1 -18,1.3 -35,2.7 -17.1,1.3 -37.3,2.9 -45,3.5 -7.7,0.5 -17.5,1 -21.8,1 -5.9,0 -7.9,-0.4 -8.5,-1.5 -0.4,-0.8 -0.5,-1.7 -0.2,-2 0.3,-0.3 6.3,-0.7 13.5,-0.9 7.1,-0.2 24,-1.1 37.5,-2 13.5,-0.9 31.9,-2.3 41,-3.2 9.1,-0.8 16.7,-1.7 17,-2 0.2,-0.3 1.6,-0.4 3,-0.2 z m -72.5,94.2 c 0.5,0.1 1.1,1.2 1.2,2.4 0.2,1.6 -0.6,2.6 -3,3.7 -1.7,0.8 -5.9,2.9 -9.2,4.8 -3.3,1.8 -9.4,5.3 -13.5,7.7 -4.1,2.4 -10.5,7.5 -14.3,11.2 -4.9,5 -7.6,8.8 -10.3,14.5 -2,4.3 -4.2,11.1 -5,15 -1,5.4 -1.1,8.5 -0.4,11.8 0.5,2.5 2,6.4 3.1,8.7 1.2,2.4 4.8,6.9 8,10 3.3,3.2 8.3,7 11.1,8.4 2.9,1.5 11.6,4.7 19.3,7.2 13.1,4.2 14.7,4.5 24,4.4 7.5,-0.2 12.2,-0.8 18.5,-2.7 4.7,-1.4 10.1,-3.7 12,-5 1.9,-1.3 5.6,-4.6 8.2,-7.2 2.9,-3 5.3,-6.7 6.3,-9.8 0.9,-2.8 1.9,-7.9 2.2,-11.5 0.4,-4.5 0,-8.5 -1.2,-13 -1,-3.6 -3.2,-9.6 -4.9,-13.5 -2.6,-5.7 -4.5,-8.1 -10.2,-12.9 -3.8,-3.3 -8.5,-6.6 -10.4,-7.4 -2.1,-0.9 -5.7,-1.3 -9.1,-1.1 -3.5,0.3 -6.5,1.1 -7.8,2.1 -1.7,1.5 -1.9,2.2 -1.1,4.3 0.7,1.8 0.7,2.8 -0.3,3.5 -0.8,0.7 -1.6,0.6 -2.3,-0.2 -0.7,-0.7 -1.5,-2.6 -1.8,-4.3 -0.5,-2.2 -0.2,-3.5 1.1,-4.7 1,-1 3.6,-2.4 5.8,-3.2 2.2,-0.9 6,-1.5 8.5,-1.6 3.1,0 6.1,0.8 9.7,2.7 2.9,1.5 8.1,5.3 11.5,8.4 4.4,3.9 7.2,7.5 9.5,12 1.7,3.5 4,9.9 5.2,14.1 1.2,4.3 2.1,9.9 2.1,12.5 0,2.7 -1,8.4 -2.3,12.8 -1.8,6.6 -3,8.8 -7.2,13.3 -2.8,3 -7.7,6.9 -11,8.8 -3.3,1.8 -9.4,4.2 -13.5,5.3 -4.8,1.4 -10.5,2.1 -15.8,2.1 -4.8,0 -8.2,0.4 -8.2,1 0,0.6 0.4,1.9 1,3 0.5,1.1 1.7,8 2.6,15.2 0.8,7.3 1.7,13.5 2,13.8 0.3,0.3 8.5,-0.1 18.2,-0.8 9.7,-0.8 26.5,-1.8 37.2,-2.2 10.7,-0.5 25.9,-0.9 33.7,-0.9 8.6,-0.1 14.5,0.3 14.8,0.9 0.3,0.6 -0.1,1.3 -0.9,1.7 -1.1,0.6 -1.3,2.3 -0.9,7.3 0.4,6.1 0.7,6.6 3.9,8.5 1.9,1.1 4,3.4 4.6,5 0.6,1.7 0.9,5.4 0.6,8.5 -0.5,4.7 -1.1,6 -7.3,11.5 l 1.1,18.5 c 0.7,10.2 1.2,30 1.4,69.5 l -32.7,1.3 c -18.1,0.7 -39,1.4 -46.5,1.5 -7.5,0.1 -13.9,0.4 -14.3,0.7 -0.3,0.3 0,6.4 0.6,13.5 1.2,12.1 1.6,13.6 5.6,22 2.5,5 5.1,11.2 5.9,14 0.7,2.7 3.6,10.6 6.4,17.5 2.8,6.9 5.9,15.9 7,20 1.1,4.1 2.6,9.7 3.4,12.5 0.7,2.7 3,11.3 5,19 2,7.7 3.9,14.8 4.1,15.7 0.4,1.5 0.9,1.6 3,0.8 1.4,-0.5 4.3,-1 6.5,-1 2.8,0 4.9,0.7 7,2.5 1.6,1.4 3,3.3 3,4.2 0.1,1 -0.8,2.9 -1.8,4.3 -1,1.4 -3.7,3.3 -6,4.2 -2.3,1 -7.2,2.1 -11,2.5 -5.4,0.5 -7.2,0.3 -9.5,-1 -1.5,-0.9 -2.7,-2.5 -2.7,-3.5 -0.1,-0.9 1.7,-3.6 4,-6 3.5,-3.6 3.9,-4.6 3.4,-7.5 -0.3,-1.7 -2.1,-8.8 -4,-15.7 -1.9,-6.9 -4.4,-15.9 -5.5,-20 -1.2,-4.1 -3,-10.6 -4.1,-14.5 -1.1,-3.9 -3.9,-11.7 -6.3,-17.5 -2.4,-5.8 -4.8,-12.5 -5.5,-15 -0.6,-2.5 -2.8,-8 -4.8,-12.3 -2.1,-4.3 -4,-7.7 -4.5,-7.7 -0.4,0 -1.8,4.6 -3.1,10.2 -1.4,5.7 -5.2,17.5 -8.6,26.3 -3.4,8.8 -8.8,22.7 -12,31 -3.2,8.2 -7.5,20 -9.5,26 -2,6 -3.9,11.8 -4.1,12.7 -0.3,1.3 0.2,1.8 1.6,1.8 1.1,0 2.9,1.2 4,2.7 1.2,1.6 2.1,4 2,5.5 0,2.4 -0.8,3.2 -5.3,5.3 -3.2,1.6 -6.9,2.5 -9.7,2.5 -2.5,0 -6.4,-0.9 -8.8,-2 -2.6,-1.2 -4.4,-2.9 -4.8,-4.3 -0.3,-1.4 0.1,-2.9 1.3,-4.1 1,-1 3.3,-2.5 5,-3.2 1.8,-0.8 4.5,-1.4 6,-1.4 2.5,0 3.1,-0.8 5.5,-6.5 1.6,-3.6 3.5,-9.3 4.4,-12.8 0.9,-3.4 3.9,-11.6 6.6,-18.2 2.7,-6.6 6.4,-16.3 8.3,-21.5 1.8,-5.2 5.4,-14.5 7.8,-20.5 2.4,-6 5.4,-14.7 6.6,-19.3 1.1,-4.5 2.1,-9.1 2.1,-10.2 0,-1.1 0.7,-2.7 1.5,-3.5 1.3,-1.3 1.3,-3.2 -1,-27.7 l -13,0.7 c -7.2,0.3 -18.6,1 -25.5,1.5 -6.9,0.5 -19.6,1.3 -43.9,2.5 L 56.2,433 c -0.6,-1.4 -1.3,-4.8 -1.6,-7.5 -0.4,-2.8 -0.9,-6.4 -1.1,-8 -0.4,-2.4 -1.2,-3.3 -4,-4.3 -2.7,-0.9 -4,-2.2 -5.6,-6 -1.6,-3.5 -2,-5.9 -1.6,-9.7 0.4,-4.3 1,-5.4 7.9,-11 L 49,377 c -0.6,-5.2 -1.8,-14.2 -2.6,-20 -0.8,-5.8 -2,-13 -2.5,-16 -0.6,-3 -2.2,-10.7 -3.6,-17 -1.4,-6.3 -2.9,-11.9 -3.3,-12.5 -0.4,-0.6 -0.7,-2.1 -0.6,-3.4 0.1,-1.9 0.9,-2.7 3.1,-3.2 1.6,-0.4 16,-1.3 32,-2 15.9,-0.6 34.7,-1.4 41.7,-1.8 6.9,-0.3 12.9,-0.8 13.2,-1.1 0.3,-0.3 -0.1,-6.4 -1,-13.5 -0.8,-7.6 -2.2,-14.4 -3.2,-16.3 -1.4,-2.9 -2.8,-3.7 -9.2,-5.8 -4.1,-1.4 -10,-3.2 -13,-4 -3,-0.8 -8.4,-3.1 -12,-5.1 -3.7,-2 -9.3,-6.4 -13,-10.2 -3.6,-3.7 -7.5,-8.7 -8.7,-11.1 -1.1,-2.5 -2.6,-6.5 -3.3,-9 -0.9,-3.4 -0.9,-6 0,-11 0.7,-3.6 2.1,-9 3.2,-12 1.2,-3 3.2,-7.5 4.6,-10 1.4,-2.5 5,-7.1 8.1,-10.3 3.1,-3.3 8.1,-7.6 11.1,-9.7 3,-2 9.3,-5.8 14,-8.3 4.7,-2.5 10.3,-5.9 12.5,-7.6 2.2,-1.6 4.4,-2.8 5,-2.7 z m 25.7,11.6 c 0.4,0 1.1,0.6 1.4,1.2 0.3,0.7 0.2,1.6 -0.2,2.1 -0.5,0.4 -5.6,1.4 -11.4,2.1 -7.2,1 -12.2,2.3 -16,4.1 -3,1.5 -8.6,4.8 -12.4,7.3 -3.8,2.6 -7.1,5.5 -7.3,6.4 -0.2,1 -1.2,1.8 -2.3,1.8 q -2,0 -2,-2 c 0,-1.2 1.9,-3.5 4.7,-5.8 2.7,-2.1 6.1,-4.7 7.8,-5.7 1.6,-1.1 5.9,-3.5 9.5,-5.3 5.3,-2.7 8.3,-3.5 16.5,-4.3 5.5,-0.5 10.2,-1.2 10.4,-1.4 0.2,-0.3 0.8,-0.5 1.3,-0.5 z m -36.1,41 c 1.9,0 3.2,0.7 3.9,2 0.5,1.1 1,3.1 1,4.5 0,1.6 -0.8,2.9 -2.3,3.6 q -2.2,1.1 -6.2,0.2 c -2.2,-0.5 -4.1,-1.5 -4.3,-2.3 -0.2,-0.8 0.9,-3 2.3,-4.8 1.9,-2.3 3.5,-3.2 5.6,-3.2 z m 30.5,0 c 1.7,0 2.9,1 4.1,3.4 1.7,3.3 1.7,3.6 0,6 -1,1.6 -2.6,2.6 -4.2,2.6 -1.4,0 -3.2,-0.2 -4,-0.5 -0.9,-0.3 -1.6,-1.9 -1.7,-4.2 -0.1,-2.4 0.5,-4.3 1.7,-5.5 1,-1 2.9,-1.8 4.1,-1.8 z m 11.4,26 c 1.1,0 2,0.7 2,1.5 0,0.8 -1.9,3.1 -4.3,5.1 -2.3,1.9 -6.7,4.7 -9.7,6.2 -4.5,2.2 -6.9,2.7 -13,2.7 -5.1,0 -8.6,-0.6 -11,-1.8 -1.9,-1 -4,-1.7 -4.5,-1.7 -0.6,0 -3.5,-1.8 -6.5,-4 -3,-2.3 -5.7,-4.5 -5.9,-5 -0.3,-0.6 0.2,-1.3 1,-1.6 0.8,-0.3 3.4,0.5 5.8,1.8 2.4,1.3 4.5,2.6 4.7,3 0.2,0.5 2.1,1.7 4.1,2.7 2.1,1.1 6.3,2.2 9.3,2.6 3.6,0.5 7.1,0.3 10,-0.6 2.5,-0.7 6.7,-2.8 9.5,-4.6 2.7,-1.9 5.4,-4 5.8,-4.8 0.4,-0.8 1.7,-1.5 2.7,-1.5 z"
     id="path297" />
  <path
     fill-rule="evenodd"
     class="a"
     d="m 20,9 c 2.1,0 5.6,0.8 7.7,1.9 2,1 4.9,3.6 6.5,5.7 1.5,2.2 3,5.7 3.3,7.9 0.2,2.2 0.1,4.5 -0.3,5 -0.4,0.6 -2.3,2.1 -7.3,5.5 l -5.5,-5 c -3,-2.8 -5.9,-4.8 -6.5,-4.5 -0.6,0.3 -1,1.2 -1,2 0,0.8 1.8,2.8 4,4.5 2.2,1.7 4,3.5 4,4 0,0.5 -1.5,1.3 -3.2,1.6 -1.8,0.3 -5.1,0.6 -7.3,0.6 -2.2,0 -5,-0.5 -6.2,-1.1 -1.3,-0.6 -3,-2.7 -3.8,-4.6 -0.8,-1.9 -1.5,-4.6 -1.5,-6 0,-1.4 0.7,-4.3 1.5,-6.5 1,-2.8 2,-3.8 3,-3.5 0.9,0.3 2,-0.5 2.8,-2.3 0.8,-1.6 2,-2.6 3,-2.5 0.9,0.2 2,-0.4 2.3,-1.2 C 15.9,9.5 17.4,9 20,9 Z m 163.1,5.1 c 1.8,0.5 4.5,2.2 6.1,3.9 1.5,1.6 2.7,4.1 2.7,5.5 0,1.4 -0.7,2.7 -1.5,3 -0.8,0.3 -3.1,0.5 -5,0.5 -2.7,0 -4,-0.7 -5.5,-2.8 -1.2,-1.5 -2.1,-3.7 -2,-5 0,-1.2 0.7,-2.4 1.5,-2.7 0.8,-0.3 1.2,-1.1 0.9,-1.9 -0.4,-1.2 0.1,-1.3 2.8,-0.5 z m 39.8,285 c 4.2,-0.1 4.6,0.1 5.7,3.1 0.7,1.8 1.3,4.9 1.3,6.8 0,2.4 -0.6,3.9 -2,4.7 -1.1,0.7 -3.2,3.7 -4.6,6.5 -1.9,4.1 -2.4,6.2 -2,9.3 0.4,2.5 1.6,5 3.4,6.6 1.5,1.5 3.6,2.9 4.7,3.3 1.7,0.5 2.1,1.8 2.8,8.3 0.5,4.3 1.2,23.1 1.6,41.8 0.5,18.7 0.6,34.2 0.4,34.5 -0.3,0.3 -9.5,0.8 -20.6,1.2 -11.1,0.4 -38.6,1.2 -61.2,1.8 -22.5,0.5 -46.2,1.4 -52.5,1.9 -6.3,0.5 -18,1.3 -40.5,2.3 l -1.3,-9.3 c -1.2,-8.8 -1.1,-9.5 0.7,-11.4 1,-1.1 2.4,-3.8 3.1,-6 0.7,-2.2 1,-4.9 0.7,-6 -0.3,-1.1 -2.3,-3.6 -4.4,-5.5 -3.8,-3.4 -3.9,-3.8 -5.2,-13.5 -0.6,-5.5 -1.9,-15.6 -2.7,-22.5 -0.9,-6.9 -2.5,-16.6 -3.6,-21.5 -1.1,-5 -2.8,-13.1 -3.9,-18 -1,-5 -1.8,-9.1 -1.6,-9.3 0.1,-0.1 11.7,-0.7 25.7,-1.2 14,-0.6 40.1,-1.7 58,-2.5 17.9,-0.8 35.2,-2 38.5,-2.6 3.3,-0.6 17,-1.4 30.5,-1.8 13.5,-0.4 26.5,-0.9 29,-1 z m 13.8,19 c 0.7,0.8 1.7,2.8 2.3,4.4 0.7,2.1 0.5,4.1 -0.5,7 -0.7,2.2 -1.8,4.1 -2.5,4.2 -0.8,0.2 -1,-2.3 -0.9,-8.3 0.2,-7.2 0.5,-8.4 1.6,-7.3 z m -7.4,1.9 c 1.2,0 1.6,1.7 1.8,8 0.2,4.4 0.2,8 0.1,8 -0.2,0 -1.4,-0.8 -2.8,-1.8 -1.4,-0.9 -2.8,-2.8 -3.1,-4.2 -0.3,-1.4 0.2,-4.2 1,-6.3 0.8,-2 2.2,-3.7 3,-3.7 z m -179,73 c 0.5,0 1.1,1 1.2,2.2 0.2,1.3 0.4,4.1 0.4,6.3 0,2.2 -0.6,4.9 -1.4,6 -1.3,1.9 -1.4,1.9 -3,-1.3 -0.9,-1.7 -1.7,-5 -1.8,-7.2 -0.1,-2.9 0.3,-4.1 1.8,-4.9 1,-0.6 2.3,-1.1 2.8,-1.1 z m 7.1,4.5 c 0.9,1.1 1.5,2.7 1.6,3.5 0,0.8 -0.7,2.2 -1.6,3 -1.4,1.4 -1.6,1 -1.5,-3.5 0.1,-4.7 0.2,-4.9 1.5,-3 z m 134,171.5 c 1.6,0 3.8,0.5 4.8,1.2 1,0.7 1.6,2 1.3,2.8 -0.3,0.8 -2.3,2.3 -4.3,3.4 -2.1,1 -6.3,2.1 -9.3,2.4 -3,0.3 -6.4,0.2 -7.5,-0.2 -1.9,-0.6 -1.9,-0.7 0.4,-3.1 1.3,-1.4 3.4,-2.5 4.7,-2.5 1.3,0 2.3,-0.5 2.2,-1 -0.1,-0.6 0.9,-1.5 2.3,-2 1.3,-0.5 3.8,-0.9 5.4,-1 z m -85.7,4 c 0.6,0 1.9,0.7 2.7,1.5 0.8,0.8 1.5,2.2 1.5,3 0,0.8 -1.8,2.2 -4,3 -2.2,0.8 -5.6,1.5 -7.5,1.5 -1.9,0 -4.8,-0.7 -6.5,-1.5 -1.6,-0.8 -3,-1.7 -3,-2 0,-0.3 1.3,-1.2 2.9,-2 1.6,-0.8 4.4,-1.5 6.2,-1.5 1.9,0 4.1,-0.5 4.9,-1 0.8,-0.5 2.1,-1 2.8,-1 z"
     id="path299" />
  <path
     d="m 122.3,324.8 c -2.7,0.9 -5.9,2.4 -7,3.1 -1,0.8 -3.4,2.9 -5.3,4.5 -1.8,1.7 -4.4,5.3 -5.7,8.1 -1.3,2.7 -2.4,6.4 -2.4,8 0,1.6 1.3,5.8 3,9.2 1.7,3.7 4,6.8 5.5,7.5 2,1.1 2.7,1 4,-0.2 0.9,-0.8 1.6,-2.5 1.5,-3.8 0,-1.2 -0.4,-2.4 -1,-2.7 -0.6,-0.3 -1.9,-2.6 -3,-5.3 -1.6,-3.7 -1.9,-5.3 -1.1,-7.7 0.6,-1.6 2.9,-4.8 5.3,-7.1 2.7,-2.5 6.4,-4.7 9.8,-5.9 3.8,-1.2 7.2,-1.6 11,-1.3 4.9,0.5 5.9,1 8.8,4.4 1.8,2.2 3.5,5.5 3.8,7.4 0.4,1.9 0.3,5 0,6.7 -0.3,1.8 -2.6,5.8 -5.1,8.8 -2.5,3 -5.4,7.7 -6.5,10.5 -1.2,3.1 -2,7.4 -2,11.2 -0.1,4.8 0.4,6.7 1.7,8 1,1 2.5,1.8 3.3,1.8 0.8,0.1 2.1,-0.5 2.8,-1.2 0.9,-0.9 1.1,-2.9 0.6,-6.8 -0.4,-3.7 -0.1,-6.6 0.8,-9 0.8,-1.9 3.4,-6 5.8,-9 2.3,-3 4.9,-7 5.6,-8.8 0.8,-1.7 1.4,-5.9 1.4,-9.2 0,-3.3 -0.4,-7.1 -1,-8.5 -0.6,-1.4 -1.5,-3.1 -2,-3.8 -0.6,-0.6 -2,-2.5 -3.3,-4.1 -1.2,-1.6 -4,-3.8 -6.2,-4.8 q -4,-1.8 -11,-1.7 c -3.9,0 -9.3,0.8 -12.1,1.7 z m 14.9,73.2 c -1.1,0.5 -2.8,2 -3.7,3.4 -1.3,2.2 -1.4,3 -0.4,5.3 0.7,1.5 2.6,3.2 4.1,3.8 2.1,0.8 3.4,0.6 5.5,-0.5 1.4,-0.8 3.3,-2.6 4.1,-4 1.2,-2.2 1.2,-2.9 0,-5.5 -1.1,-2.2 -2.2,-3.1 -4.4,-3.2 -1.7,-0.1 -4,0.2 -5.2,0.7 z"
     id="path301" />
</svg>
